<svg width="200" height="28" viewBox="0 0 200 28" fill="none" xmlns="http://www.w3.org/2000/svg">
<path d="M23.6677 0.8V28H18.4677L5.86766 9.8V28H0.707657V0.8H5.86766L18.4677 18.96V0.8H23.6677ZM49.4352 28H30.3952V0.8H46.6352L47.4352 4.88H35.5552V12.2H42.8352L43.6752 16.32H35.5552V23.96H48.5952L49.4352 28ZM77.2383 28L70.7983 8.56L64.5983 28H59.9983L50.4783 1.52L55.5983 0.8L62.3583 20.6L68.4783 0.8H73.3183L79.8383 20.56L86.1983 0.8H91.4383L81.8783 28H77.2383ZM110.458 28V17.4L101.338 1.48L106.698 0.8L113.018 12.16L119.618 0.8H125.098L115.658 17.6V28H110.458ZM147.716 28H128.676V0.8H144.916L145.716 4.88H133.836V12.2H141.116L141.956 16.32H133.836V23.96H146.876L147.716 28ZM161.44 7.92L157.88 17.4H165.08L161.44 7.92ZM163.76 0.8L174.32 27.28L169.12 28L166.68 21.6H156.36L153.96 28H148.76L159.36 0.8H163.76ZM186.294 5.12H183.094V13.44H186.374C187.921 13.44 189.201 13.1333 190.214 12.52C191.228 11.88 191.734 10.84 191.734 9.4C191.734 7.88 191.254 6.78667 190.294 6.12C189.334 5.45333 188.001 5.12 186.294 5.12ZM193.734 28L187.974 17.6C187.681 17.6267 187.374 17.6533 187.054 17.68C186.734 17.68 186.414 17.68 186.094 17.68H183.094V28H177.934V0.8H186.454C189.414 0.8 191.948 1.48 194.054 2.84C196.161 4.2 197.214 6.30667 197.214 9.16C197.214 10.84 196.774 12.2933 195.894 13.52C195.041 14.72 193.934 15.6533 192.574 16.32L199.254 28H193.734Z" fill="black"/>
</svg>
