<svg width="240" height="72" viewBox="0 0 240 72" fill="none" xmlns="http://www.w3.org/2000/svg">
<path d="M31.7515 8.38566V40.4622H25.6192L10.7603 18.9992V40.4622H4.67517V8.38566H10.7603L25.6192 29.8014V8.38566H31.7515ZM62.1387 40.4622H39.6851V8.38566H58.8367L59.7801 13.1971H45.7702V21.8295H54.3554L55.346 26.6881H45.7702V35.6979H61.1481L62.1387 40.4622ZM94.9264 40.4622L87.3318 17.5369L80.0203 40.4622H74.5956L63.3688 9.23475L69.4067 8.38566L77.3787 31.7355L84.5959 8.38566H90.3036L97.9926 31.6883L105.493 8.38566H111.672L100.398 40.4622H94.9264ZM134.101 40.4622V27.9618L123.346 9.18757L129.667 8.38566L137.12 21.7823L144.904 8.38566H151.366L140.234 28.1976V40.4622H134.101ZM178.04 40.4622H155.587V8.38566H174.738L175.681 13.1971H161.672V21.8295H170.257L171.247 26.6881H161.672V35.6979H177.049L178.04 40.4622ZM194.224 16.7822L190.025 27.9618H198.516L194.224 16.7822ZM196.959 8.38566L209.413 39.6131L203.28 40.4622L200.403 32.9147H188.233L185.402 40.4622H179.27L191.771 8.38566H196.959ZM223.534 13.4802H219.761V23.2918H223.629C225.453 23.2918 226.962 22.9302 228.157 22.2069C229.352 21.4521 229.95 20.2257 229.95 18.5275C229.95 16.735 229.383 15.4456 228.251 14.6594C227.119 13.8733 225.547 13.4802 223.534 13.4802ZM232.308 40.4622L225.515 28.1976C225.169 28.2291 224.808 28.2605 224.43 28.292C224.053 28.292 223.676 28.292 223.298 28.292H219.761V40.4622H213.675V8.38566H223.723C227.214 8.38566 230.201 9.18758 232.685 10.7914C235.17 12.3952 236.412 14.8796 236.412 18.2445C236.412 20.2257 235.893 21.9396 234.855 23.3861C233.849 24.8013 232.544 25.9019 230.94 26.6881L238.818 40.4622H232.308Z" fill="black"/>
<path d="M44.0107 61.2529H37.2534V62.5737H43.3149C42.855 63.5997 42.2536 64.8615 41.7347 65.8757L43.2206 66.2885C43.9517 64.7908 44.8008 62.9629 45.3787 61.5124L44.2584 61.1822L44.0107 61.2529ZM39.2582 58.8236C40.1073 58.0689 40.8266 57.267 41.3337 56.5358C41.8526 57.267 42.6192 58.0689 43.48 58.8236H39.2582ZM40.5672 55.1678C39.6827 56.6301 37.7841 58.5288 35.7911 59.6255C36.0977 59.9203 36.4987 60.4156 36.6756 60.7458C37.4421 60.2859 38.185 59.7552 38.8572 59.1774V60.1208H43.8574V59.142C44.5768 59.7434 45.3433 60.2859 46.0862 60.7223C46.3457 60.2977 46.6523 59.8496 47.0061 59.4958C45.1664 58.6349 43.2324 56.9721 41.9705 55.1678H40.5672ZM54.982 62.3968V60.6043H57.0221V62.3968H54.982ZM62.5058 62.3968H58.4726V60.6043H61.5859V59.2953H58.4726V57.892H61.8572V56.5358H55.1942C55.3475 56.2174 55.4773 55.899 55.5834 55.5688L54.1565 55.2032C53.6494 56.7245 52.7413 58.234 51.68 59.1302C52.022 59.3307 52.6234 59.8024 52.8946 60.0383C53.4489 59.484 54.015 58.7293 54.4985 57.892H57.0221V59.2953H53.5786V62.3968H51.7154V63.7412H57.0221V66.2649H58.4726V63.7412H62.5058V62.3968ZM77.864 61.076C77.864 58.5052 76.0243 56.4768 73.0997 56.4768C70.0453 56.4768 67.6868 58.8 67.6868 61.5242C67.6868 63.5172 68.7717 64.9559 70.0807 64.9559C71.3661 64.9559 72.3803 63.4936 73.0879 61.1114C73.4299 60.0029 73.6304 58.9179 73.7955 57.9156C75.3875 58.1868 76.272 59.4015 76.272 61.0289C76.272 62.7506 75.0927 63.8356 73.5832 64.1893C73.2648 64.2601 72.9346 64.3309 72.4865 64.378L73.3709 65.7814C76.3427 65.3215 77.864 63.5643 77.864 61.076ZM69.1963 61.3709C69.1963 60.0736 70.2458 58.3519 72.1916 57.9509C72.0619 58.9297 71.8378 59.9321 71.5666 60.8048C71.0831 62.3968 70.6232 63.1398 70.1279 63.1398C69.668 63.1398 69.1963 62.5619 69.1963 61.3709ZM89.8966 56.8896L88.8706 57.3259C89.2952 57.9274 89.6018 58.4934 89.9556 59.2481L91.0051 58.7882C90.7457 58.2458 90.2268 57.3849 89.8966 56.8896ZM91.4768 56.241L90.4627 56.7127C90.899 57.3023 91.2174 57.8448 91.5948 58.5877L92.6207 58.0925C92.3613 57.5618 91.8188 56.7245 91.4768 56.241ZM86.8541 55.9462L84.9554 55.9226C85.0498 56.3825 85.0969 56.9485 85.0969 57.5146C85.0969 58.5288 84.9908 61.6303 84.9908 63.2105C84.9908 65.2153 86.229 66.0644 88.1631 66.0644C90.8518 66.0644 92.5264 64.496 93.2929 63.3638L92.2198 62.0548C91.3589 63.3403 90.1325 64.4724 88.1866 64.4724C87.2668 64.4724 86.5474 64.0832 86.5474 62.8921C86.5474 61.418 86.6418 58.7882 86.7007 57.5146C86.7243 57.0429 86.7833 56.4415 86.8541 55.9462ZM103.734 58.6939L104.677 59.5548C105.16 59.2246 106.069 58.4934 106.387 58.234L106.033 57.3141C105.231 56.8188 103.969 56.2764 102.991 55.9108L102.118 56.9957C103.002 57.3259 103.958 57.8094 104.476 58.1514C104.311 58.2811 104.017 58.5052 103.734 58.6939ZM101.729 64.1304L101.941 65.687C102.519 65.7932 103.203 65.8639 103.851 65.8639C105.078 65.8639 106.198 65.3922 106.198 63.812C106.198 62.727 105.502 61.6657 104.241 60.4038C103.934 60.0854 103.627 59.7906 103.285 59.4486L102.13 60.4038C102.519 60.6987 102.92 61.0525 103.215 61.3355C103.745 61.8662 104.559 62.9275 104.559 63.6469C104.559 64.2011 104.146 64.4134 103.545 64.4134C102.979 64.4134 102.366 64.3191 101.729 64.1304ZM108.262 65.0384L109.689 64.2719C109.335 63.1752 108.415 61.3826 107.672 60.4746L106.399 61.1586C107.189 62.1374 107.967 63.8591 108.262 65.0384ZM102.436 62.7978L101.552 61.6539C100.844 62.4086 99.5589 63.411 98.5447 63.9653L99.4409 65.2271C100.703 64.4606 101.776 63.5054 102.436 62.7978ZM107.578 57.208L106.646 57.5854C106.965 58.0453 107.33 58.7528 107.578 59.2364L108.521 58.8236C108.297 58.3873 107.885 57.6443 107.578 57.208ZM108.981 56.6773L108.05 57.0547C108.368 57.5028 108.757 58.1868 108.993 58.6821L109.937 58.2811C109.724 57.8684 109.288 57.1136 108.981 56.6773ZM120.908 56.465L119.233 55.7928C119.033 56.2881 118.809 56.6773 118.655 56.9957C118.03 58.116 115.613 62.9275 114.74 65.2861L116.403 65.8521C116.58 65.2271 116.993 63.9063 117.299 63.2223C117.724 62.2671 118.384 61.4416 119.186 61.4416C119.611 61.4416 119.846 61.6893 119.882 62.102C119.917 62.5855 119.905 63.5525 119.953 64.1776C120 65.0384 120.613 65.8168 121.922 65.8168C123.726 65.8168 124.823 64.4724 125.436 62.4558L124.163 61.418C123.821 62.8803 123.196 64.2011 122.17 64.2011C121.78 64.2011 121.45 64.0242 121.403 63.5643C121.344 63.069 121.38 62.1256 121.356 61.5949C121.309 60.6161 120.778 60.0619 119.894 60.0619C119.445 60.0619 118.974 60.168 118.537 60.4156C119.127 59.3779 119.953 57.8684 120.53 57.0193C120.66 56.8306 120.79 56.6301 120.908 56.465ZM133.719 55.8282L132.245 56.4297C132.775 57.6797 133.341 58.9415 133.884 59.9439C132.752 60.7812 131.926 61.76 131.926 63.0572C131.926 65.0856 133.707 65.7342 136.054 65.7342C137.587 65.7342 138.837 65.6163 139.839 65.4394L139.863 63.7412C138.813 64.0007 137.221 64.1776 136.007 64.1776C134.367 64.1776 133.554 63.7294 133.554 62.8803C133.554 62.0548 134.214 61.3826 135.193 60.734C136.266 60.0383 137.752 59.3543 138.483 58.9887C138.919 58.7646 139.297 58.5642 139.651 58.3519L138.837 56.9839C138.53 57.2434 138.188 57.4438 137.74 57.7033C137.186 58.0217 136.16 58.5288 135.193 59.0948C134.721 58.1868 134.167 57.0547 133.719 55.8282ZM150.61 59.484H148.499V58.3283H150.622C150.492 58.5052 150.339 58.6585 150.185 58.8C150.516 59.0005 151.082 59.4486 151.329 59.6963C151.778 59.2246 152.19 58.6231 152.532 57.9274H156.742V56.6537H153.075C153.204 56.2764 153.322 55.8872 153.417 55.498L152.037 55.2386C151.813 56.2174 151.436 57.1608 150.928 57.9156V57.0311H149.183V55.2386H147.839V57.0311H146.07V58.3283H147.273V60.1444C147.273 61.7128 147.108 63.7176 145.81 65.4276C146.152 65.6517 146.6 66.0054 146.848 66.2885C148.157 64.5785 148.452 62.5501 148.487 60.7458H149.336C149.289 63.5879 149.23 64.5903 149.065 64.8379C148.983 64.9795 148.876 65.0148 148.735 65.0148C148.546 65.0148 148.24 65.003 147.874 64.9677C148.063 65.3097 148.192 65.8403 148.216 66.2177C148.688 66.2295 149.148 66.2177 149.431 66.1705C149.749 66.1116 149.973 65.9936 150.197 65.6752C150.492 65.2389 150.551 63.8356 150.61 60.0265V59.484ZM156.082 60.109C155.775 60.4864 155.327 60.9345 154.879 61.3237C154.773 60.8874 154.679 60.4274 154.608 59.9675C155.327 59.5901 155.988 59.1892 156.471 58.7882L155.469 58.0571C154.419 58.8708 152.308 59.7317 150.645 60.0619C150.94 60.3685 151.282 60.8874 151.471 61.2293L151.719 61.1586V66.2413H153.051V60.6751C153.193 60.6161 153.322 60.5572 153.464 60.4982C153.888 63.0336 154.608 65.0856 156.164 66.2177C156.377 65.8403 156.801 65.2979 157.12 65.0384C156.271 64.496 155.669 63.5997 155.256 62.503C155.834 62.0784 156.518 61.5242 157.072 61.0053L156.082 60.109ZM166.558 56.9839V58.4934C168.044 58.6349 170.178 58.6231 171.629 58.4934V56.9721C170.355 57.1254 168.008 57.1844 166.558 56.9839ZM167.501 62.0195L166.145 61.8897C166.015 62.4912 165.945 62.9629 165.945 63.4228C165.945 64.6375 166.923 65.3568 168.952 65.3568C170.284 65.3568 171.228 65.2743 171.994 65.1328L171.971 63.5407C170.933 63.753 170.06 63.8474 169.011 63.8474C167.808 63.8474 167.36 63.5289 167.36 63.0101C167.36 62.6917 167.407 62.4086 167.501 62.0195ZM164.742 56.1938L163.091 56.0523C163.079 56.4297 163.008 56.8778 162.973 57.208C162.843 58.116 162.478 60.109 162.478 61.8779C162.478 63.4818 162.702 64.9205 162.937 65.7342L164.305 65.6399C164.294 65.4748 164.282 65.2861 164.282 65.1564C164.282 65.0384 164.305 64.779 164.341 64.6021C164.471 63.9771 164.86 62.6917 165.19 61.7128L164.459 61.135C164.294 61.5242 164.105 61.9369 163.928 62.3379C163.893 62.102 163.881 61.7954 163.881 61.5713C163.881 60.3921 164.294 58.0335 164.447 57.2434C164.494 57.0311 164.647 56.4415 164.742 56.1938ZM177.812 57.1372L177.965 58.7528C179.333 58.458 181.739 58.1986 182.848 58.0807C182.046 58.6821 181.091 60.0265 181.091 61.7246C181.091 64.2837 183.426 65.6045 185.902 65.7696L186.456 64.154C184.452 64.0478 182.635 63.3521 182.635 61.4062C182.635 60.0029 183.709 58.4816 185.135 58.1042C185.761 57.9509 186.775 57.9509 187.412 57.9391L187.4 56.4297C186.562 56.465 185.277 56.5358 184.062 56.6419C181.904 56.8188 179.958 56.9957 178.968 57.0783C178.744 57.1019 178.284 57.1254 177.812 57.1372ZM185.725 59.0948L184.852 59.4604C185.23 59.9911 185.477 60.451 185.772 61.0996L186.669 60.6987C186.444 60.2387 186.02 59.5194 185.725 59.0948ZM187.046 58.5524L186.185 58.9533C186.562 59.4722 186.834 59.9085 187.152 60.5454L188.037 60.1208C187.789 59.6609 187.341 58.9651 187.046 58.5524ZM197.321 63.8356C197.321 63.5407 197.604 63.2695 198.053 63.2695C198.689 63.2695 199.126 63.7648 199.196 64.5313C198.984 64.5549 198.76 64.5667 198.512 64.5667C197.805 64.5667 197.321 64.2719 197.321 63.8356ZM195.317 56.241L195.364 57.774C195.635 57.7387 196.012 57.7033 196.331 57.6797C196.956 57.6443 198.583 57.5736 199.185 57.5618C198.607 58.0689 197.38 59.0595 196.72 59.6019C196.024 60.1798 194.597 61.3826 193.76 62.0548L194.833 63.1634C196.095 61.7246 197.274 60.7694 199.079 60.7694C200.47 60.7694 201.531 61.4888 201.531 62.5501C201.531 63.2695 201.201 63.812 200.553 64.154C200.388 63.0336 199.503 62.1374 198.041 62.1374C196.791 62.1374 195.93 63.0219 195.93 63.9771C195.93 65.1564 197.168 65.9111 198.807 65.9111C201.661 65.9111 203.076 64.437 203.076 62.5737C203.076 60.852 201.555 59.6019 199.55 59.6019C199.173 59.6019 198.819 59.6373 198.43 59.7317C199.173 59.142 200.411 58.1042 201.048 57.6561C201.319 57.4556 201.602 57.2905 201.873 57.1136L201.107 56.0641C200.965 56.1113 200.694 56.1466 200.211 56.1938C199.538 56.2528 197.015 56.2999 196.39 56.2999C196.06 56.2999 195.647 56.2881 195.317 56.241Z" fill="black"/>
</svg>
